<?xml version="1.0" encoding="utf-8" ?><svg xmlns="http://www.w3.org/2000/svg" xmlns:xlink="http://www.w3.org/1999/xlink" width="1024" height="1024" viewBox="0 0 1024 1024"><path d="M238.191 129.601C242.492 129.16 248.416 128.938 252.713 129.333C258.447 130.304 268.296 130.174 274.207 130.18L301.322 130.239L419.082 130.195L655.451 130.336C686.681 130.593 717.913 130.539 749.141 130.176C762.007 130.072 772.566 130.285 785.567 129.839C785.202 166.324 785.116 202.811 785.307 239.298C785.519 260.933 786.4 281.77 786.423 303.704L786.443 711.501L785.885 806.043C785.801 815.248 784.455 869.756 786.474 875.563L787.072 877.281C787.146 884.518 787.109 891.757 786.96 898.993L238.157 898.914C238.819 842.869 237.919 785.033 237.935 728.772L237.99 335.72L238.049 200.333C238.064 177.434 237.546 152.265 238.191 129.601ZM295.136 839.125C296.443 840.19 298.216 839.962 299.975 839.975L557.55 839.55L632.932 839.619C663.906 839.918 698.443 840.606 729.485 839.854C730.26 819.97 729.556 794.481 729.565 774.205L729.575 644.204L729.34 187.724C714.114 187.092 696.21 187.561 680.764 187.561L592.209 187.54L295.347 187.53C293.533 190.139 294.333 202.791 294.354 206.877L294.407 236.996L294.365 342.966L294.381 645.589L294.437 748.082C294.45 764.994 294.936 784.373 294.437 801.003L295.492 803.069C295.528 811.009 296.104 832.093 295.136 839.125Z"/><path d="M375.003 432.293C383.91 423.377 399.633 410.289 409.544 401.467L482.184 336.977L562.966 264.966C575.616 253.703 590.532 239.475 603.416 229.123C602.775 252.032 604.812 278.536 603.104 301.215C587.499 316.115 570.539 330.152 554.544 344.609C537.962 359.596 521.634 374.498 504.852 389.274C494.817 398.128 484.826 407.032 474.88 415.986C470.645 419.782 462.681 426.488 459.128 430.479L594.225 543.817L632.99 576.418C637.834 580.43 648.527 588.457 652.441 592.644L502.723 726.124L453.826 769.821C448.192 774.825 436.534 785.97 430.954 789.981C430.131 790.972 427.473 793.46 426.435 794.49C426.703 778.02 426.27 761.253 426.468 744.782C426.527 739.877 426.142 725.905 427.166 721.814C429.475 717.764 450.834 699.949 455.632 695.629C487.032 667.355 518.972 639.61 550.337 611.296C556.233 605.974 563.78 600.052 568.915 594.219C564.381 589.706 557.778 584.389 552.833 580.13C539.584 568.719 525.612 557.757 512.249 546.508C466.771 508.112 421.022 470.039 375.003 432.293Z"/><path d="M294.437 801.003C294.936 784.373 294.45 764.994 294.437 748.082L294.381 645.589L294.365 342.966L294.407 236.996L294.354 206.877C294.333 202.791 293.533 190.139 295.347 187.53C294.955 194.812 295.443 201.985 295.487 209.292L295.482 250.512L295.468 386.791L295.492 803.069L294.437 801.003Z"/><path d="M252.713 129.333C263.503 128.866 276.942 129.303 287.933 129.341L353.246 129.442L579.314 129.478L721.843 129.469L764.38 129.426C770.211 129.416 781.652 129.084 787.028 129.612L787.072 877.281L786.474 875.563C784.455 869.756 785.801 815.248 785.885 806.043L786.443 711.501L786.423 303.704C786.4 281.77 785.519 260.933 785.307 239.298C785.116 202.811 785.202 166.324 785.567 129.839C772.566 130.285 762.007 130.072 749.141 130.176C717.913 130.539 686.681 130.593 655.451 130.336L419.082 130.195L301.322 130.239L274.207 130.18C268.296 130.174 258.447 130.304 252.713 129.333Z"/></svg>